<svg width="912" height="2253" viewBox="0 0 912 2253" class="keymap" xmlns="http://www.w3.org/2000/svg" xmlns:xlink="http://www.w3.org/1999/xlink">
<style>/* inherit to force styles through use tags */
svg path {
    fill: inherit;
}

/* font and background color specifications */
svg.keymap {
    font-family: SFMono-Regular,Consolas,Liberation Mono,Menlo,monospace;
    font-size: 14px;
    font-kerning: normal;
    text-rendering: optimizeLegibility;
    fill: #24292e;
}

/* default key styling */
rect.key {
    fill: #f6f8fa;
}

rect.key, rect.combo {
    stroke: #c9cccf;
    stroke-width: 1;
}

/* default key side styling, only used is draw_key_sides is set */
rect.side {
    filter: brightness(90%);
}

/* color accent for combo boxes */
rect.combo, rect.combo-separate {
    fill: #cdf;
}

/* color accent for held keys */
rect.held, rect.combo.held {
    fill: #fdd;
}

/* color accent for ghost (optional) keys */
rect.ghost, rect.combo.ghost {
    stroke-dasharray: 4, 4;
    stroke-width: 2;
}

text {
    text-anchor: middle;
    dominant-baseline: middle;
}

/* styling for layer labels */
text.label {
    font-weight: bold;
    text-anchor: start;
    stroke: white;
    stroke-width: 4;
    paint-order: stroke;
}

/* styling for optional footer */
text.footer {
    text-anchor: end;
    dominant-baseline: auto;
    stroke: white;
    stroke-width: 4;
    paint-order: stroke;
}

/* styling for combo tap, and key non-tap label text */
text.combo, text.hold, text.shifted, text.left, text.right {
    font-size: 11px;
}

text.hold {
    text-anchor: middle;
    dominant-baseline: auto;
}

text.shifted {
    text-anchor: middle;
    dominant-baseline: hanging;
}

text.left {
    text-anchor: start;
}

text.right {
    text-anchor: end;
}

text.layer-activator {
    text-decoration: underline;
}

/* styling for hold/shifted label text in combo box */
text.combo.hold, text.combo.shifted, text.combo.left, text.combo.right {
    font-size: 8px;
}

/* lighter symbol for transparent keys */
text.trans {
    fill: #7b7e81;
}

/* styling for combo dendrons */
path.combo {
    stroke-width: 1;
    stroke: gray;
    fill: none;
}

/* Start Tabler Icons Cleanup */
/* cannot use height/width with glyphs */
.icon-tabler > path {
    fill: inherit;
    stroke: inherit;
    stroke-width: 2;
}
/* hide tabler's default box */
.icon-tabler > path[stroke="none"][fill="none"] {
    visibility: hidden;
}
/* End Tabler Icons Cleanup */

.key.hold{font-weight:600}.combo{font-size:18px;font-weight:700}.combo.tap{font-size:20px}</style>
<g transform="translate(40, 0)" class="layer-default">
<text x="0" y="32" class="label" id="default">default:</text>
<g transform="translate(0, 64)">
<g transform="translate(32, 51)" class="key keypos-0">
<rect rx="6" ry="6" x="-28" y="-28" width="56" height="56" class="key"/>
<text x="0" y="0" class="key tap">Q</text>
</g>
<g transform="translate(96, 38)" class="key keypos-1">
<rect rx="6" ry="6" x="-28" y="-28" width="56" height="56" class="key"/>
<text x="0" y="0" class="key tap">W</text>
</g>
<g transform="translate(160, 32)" class="key keypos-2">
<rect rx="6" ry="6" x="-28" y="-28" width="56" height="56" class="key"/>
<text x="0" y="0" class="key tap">E</text>
</g>
<g transform="translate(224, 38)" class="key keypos-3">
<rect rx="6" ry="6" x="-28" y="-28" width="56" height="56" class="key"/>
<text x="0" y="0" class="key tap">R</text>
<text x="0" y="26" class="key hold"><tspan style="font-size: 71%">F5·longer_hold</tspan></text>
</g>
<g transform="translate(288, 45)" class="key keypos-4">
<rect rx="6" ry="6" x="-28" y="-28" width="56" height="56" class="key"/>
<text x="0" y="0" class="key tap">T</text>
</g>
<g transform="translate(544, 45)" class="key keypos-5">
<rect rx="6" ry="6" x="-28" y="-28" width="56" height="56" class="key"/>
<text x="0" y="0" class="key tap">Y</text>
</g>
<g transform="translate(608, 38)" class="key keypos-6">
<rect rx="6" ry="6" x="-28" y="-28" width="56" height="56" class="key"/>
<text x="0" y="0" class="key tap">U</text>
</g>
<g transform="translate(672, 32)" class="key keypos-7">
<rect rx="6" ry="6" x="-28" y="-28" width="56" height="56" class="key"/>
<text x="0" y="0" class="key tap">I</text>
</g>
<g transform="translate(736, 38)" class="key keypos-8">
<rect rx="6" ry="6" x="-28" y="-28" width="56" height="56" class="key"/>
<text x="0" y="0" class="key tap">O</text>
</g>
<g transform="translate(800, 51)" class="key keypos-9">
<rect rx="6" ry="6" x="-28" y="-28" width="56" height="56" class="key"/>
<text x="0" y="0" class="key tap">P</text>
</g>
<g transform="translate(32, 115)" class="key keypos-10">
<rect rx="6" ry="6" x="-28" y="-28" width="56" height="56" class="key"/>
<text x="0" y="0" class="key tap">A</text>
<text x="0" y="26" class="key hold"><tspan style="font-size: 71%">Gui·homey_left</tspan></text>
</g>
<g transform="translate(96, 102)" class="key keypos-11">
<rect rx="6" ry="6" x="-28" y="-28" width="56" height="56" class="key"/>
<text x="0" y="0" class="key tap">S</text>
<text x="0" y="26" class="key hold"><tspan style="font-size: 71%">Ctl·homey_left</tspan></text>
</g>
<g transform="translate(160, 96)" class="key keypos-12">
<rect rx="6" ry="6" x="-28" y="-28" width="56" height="56" class="key"/>
<text x="0" y="0" class="key tap">D</text>
<text x="0" y="26" class="key hold"><tspan style="font-size: 71%">Alt·homey_left</tspan></text>
</g>
<g transform="translate(224, 102)" class="key keypos-13">
<rect rx="6" ry="6" x="-28" y="-28" width="56" height="56" class="key"/>
<text x="0" y="0" class="key tap">F</text>
<text x="0" y="26" class="key hold"><tspan style="font-size: 71%">Sft·homey_left</tspan></text>
</g>
<g transform="translate(288, 109)" class="key keypos-14">
<rect rx="6" ry="6" x="-28" y="-28" width="56" height="56" class="key"/>
<text x="0" y="0" class="key tap">G</text>
</g>
<g transform="translate(544, 109)" class="key keypos-15">
<rect rx="6" ry="6" x="-28" y="-28" width="56" height="56" class="key"/>
<text x="0" y="0" class="key tap">H</text>
<text x="0" y="26" class="key hold"><tspan style="font-size: 67%">Sft·homey_right</tspan></text>
</g>
<g transform="translate(608, 102)" class="key keypos-16">
<rect rx="6" ry="6" x="-28" y="-28" width="56" height="56" class="key"/>
<text x="0" y="0" class="key tap">J</text>
<text x="0" y="26" class="key hold"><tspan style="font-size: 67%">Sft·homey_right</tspan></text>
</g>
<g transform="translate(672, 96)" class="key keypos-17">
<rect rx="6" ry="6" x="-28" y="-28" width="56" height="56" class="key"/>
<text x="0" y="0" class="key tap">K</text>
<text x="0" y="26" class="key hold"><tspan style="font-size: 67%">Alt·homey_right</tspan></text>
</g>
<g transform="translate(736, 102)" class="key keypos-18">
<rect rx="6" ry="6" x="-28" y="-28" width="56" height="56" class="key"/>
<text x="0" y="0" class="key tap">L</text>
<text x="0" y="26" class="key hold"><tspan style="font-size: 67%">Ctl·homey_right</tspan></text>
</g>
<g transform="translate(800, 115)" class="key keypos-19">
<rect rx="6" ry="6" x="-28" y="-28" width="56" height="56" class="key"/>
<text x="0" y="0" class="key tap">&#x27;</text>
<text x="0" y="26" class="key hold"><tspan style="font-size: 67%">Gui·homey_right</tspan></text>
</g>
<g transform="translate(32, 179)" class="key keypos-20">
<rect rx="6" ry="6" x="-28" y="-28" width="56" height="56" class="key"/>
<text x="0" y="0" class="key tap">Z</text>
</g>
<g transform="translate(96, 166)" class="key keypos-21">
<rect rx="6" ry="6" x="-28" y="-28" width="56" height="56" class="key"/>
<text x="0" y="0" class="key tap">X</text>
<text x="0" y="26" class="key hold"><tspan style="font-size: 62%">Ctl+X·homey_left</tspan></text>
</g>
<g transform="translate(160, 160)" class="key keypos-22">
<rect rx="6" ry="6" x="-28" y="-28" width="56" height="56" class="key"/>
<text x="0" y="0" class="key tap">C</text>
<text x="0" y="26" class="key hold"><tspan style="font-size: 62%">Ctl+C·homey_left</tspan></text>
</g>
<g transform="translate(224, 166)" class="key keypos-23">
<rect rx="6" ry="6" x="-28" y="-28" width="56" height="56" class="key"/>
<text x="0" y="0" class="key tap">V</text>
<text x="0" y="26" class="key hold"><tspan style="font-size: 62%">Ctl+V·homey_left</tspan></text>
</g>
<g transform="translate(288, 173)" class="key keypos-24">
<rect rx="6" ry="6" x="-28" y="-28" width="56" height="56" class="key"/>
<text x="0" y="0" class="key tap">B</text>
</g>
<g transform="translate(544, 173)" class="key keypos-25">
<rect rx="6" ry="6" x="-28" y="-28" width="56" height="56" class="key"/>
<text x="0" y="0" class="key tap">N</text>
</g>
<g transform="translate(608, 166)" class="key keypos-26">
<rect rx="6" ry="6" x="-28" y="-28" width="56" height="56" class="key"/>
<text x="0" y="0" class="key tap">M</text>
</g>
<g transform="translate(672, 160)" class="key keypos-27">
<rect rx="6" ry="6" x="-28" y="-28" width="56" height="56" class="key"/>
<text x="0" y="0" class="key tap">,</text>
</g>
<g transform="translate(736, 166)" class="key keypos-28">
<rect rx="6" ry="6" x="-28" y="-28" width="56" height="56" class="key"/>
<text x="0" y="0" class="key tap">.</text>
</g>
<g transform="translate(800, 179)" class="key keypos-29">
<rect rx="6" ry="6" x="-28" y="-28" width="56" height="56" class="key"/>
<text x="0" y="0" class="key tap">/</text>
<text x="0" y="26" class="key hold">?·mt</text>
</g>
<g transform="translate(224, 269)" class="key keypos-30">
<rect rx="6" ry="6" x="-28" y="-28" width="56" height="56" class="key"/>
<text x="0" y="0" class="key tap">Gui</text>
</g>
<g transform="translate(288, 269)" class="key keypos-31">
<rect rx="6" ry="6" x="-28" y="-28" width="56" height="56" class="key"/>
<text x="0" y="0" class="key tap">BACKSPACE</text>
<text x="0" y="26" class="key hold"><tspan style="font-size: 83%">symbol·thumb</tspan></text>
</g>
<g transform="translate(352, 253)" class="key keypos-32">
<rect rx="6" ry="6" x="-28" y="-44" width="56" height="88" class="key"/>
<text x="0" y="0" class="key tap">DEL</text>
<text x="0" y="42" class="key hold"><tspan style="font-size: 77%">number·lspace</tspan></text>
</g>
<g transform="translate(480, 253)" class="key keypos-33">
<rect rx="6" ry="6" x="-28" y="-44" width="56" height="88" class="key"/>
<text x="0" y="0" class="key tap">ENTER</text>
<text x="0" y="42" class="key hold"><tspan style="font-size: 77%">window·rspace</tspan></text>
</g>
<g transform="translate(544, 269)" class="key keypos-34">
<rect rx="6" ry="6" x="-28" y="-28" width="56" height="56" class="key"/>
<text x="0" y="0" class="key tap">SPACE</text>
<text x="0" y="26" class="key hold"><tspan style="font-size: 83%">window·thumb</tspan></text>
</g>
<g transform="translate(608, 269)" class="key keypos-35">
<rect rx="6" ry="6" x="-28" y="-28" width="56" height="56" class="key"/>
<a href="#navigation">
<text x="0" y="0" class="key tap layer-activator">navigation</text>
</a><text x="0" y="26" class="key hold">toggle</text>
</g>
<g class="combo combopos-0">
<path d="M288,263 l-43,4" class="combo"/>
<path d="M288,263 l43,-7" class="combo"/>
<rect rx="6" ry="6" x="268" y="246" width="40" height="34" class="combo"/>
<a href="#bootloader">
<text x="288" y="263" class="combo tap layer-activator">bootloader</text>
</a><text x="288" y="278" class="combo hold">sticky</text>
</g>
<g class="combo combopos-1">
<path d="M544,263 l-43,-7" class="combo"/>
<path d="M544,263 l43,4" class="combo"/>
<rect rx="6" ry="6" x="524" y="246" width="40" height="34" class="combo"/>
<a href="#bootloader">
<text x="544" y="263" class="combo tap layer-activator">bootloader</text>
</a><text x="544" y="278" class="combo hold">sticky</text>
</g>
<g class="combo combopos-2">
<rect rx="6" ry="6" x="172" y="82" width="40" height="34" class="combo"/>
<text x="192" y="99" class="combo tap">TAB</text>
</g>
<g class="combo combopos-3">
<rect rx="6" ry="6" x="108" y="82" width="40" height="34" class="combo"/>
<text x="128" y="99" class="combo tap">ESC</text>
</g>
<g class="combo combopos-4">
<path d="M288,210 l-46,-31" class="combo"/>
<path d="M288,210 l46,31" class="combo"/>
<rect rx="6" ry="6" x="268" y="193" width="40" height="34" class="combo"/>
<text x="288" y="210" class="combo tap">PASTE</text>
</g>
<g class="combo combopos-5">
<path d="M256,206 l-77,-37" class="combo"/>
<path d="M256,206 l77,37" class="combo"/>
<rect rx="6" ry="6" x="236" y="189" width="40" height="34" class="combo"/>
<text x="256" y="206" class="combo tap">COPY</text>
</g>
<g class="combo combopos-6">
<path d="M224,210 l-108,-36" class="combo"/>
<path d="M224,210 l108,36" class="combo"/>
<rect rx="6" ry="6" x="204" y="193" width="40" height="34" class="combo"/>
<text x="224" y="210" class="combo tap">CUT</text>
</g>
<g class="combo combopos-7">
<rect rx="6" ry="6" x="684" y="82" width="40" height="34" class="combo"/>
<text x="704" y="99" class="combo tap">ESC</text>
</g>
<g class="combo combopos-8">
<rect rx="6" ry="6" x="748" y="92" width="40" height="34" class="combo"/>
<text x="768" y="109" class="combo tap">;</text>
</g>
<g class="combo combopos-9">
<path d="M512,109 l-267,-6" class="combo"/>
<path d="M512,109 l267,6" class="combo"/>
<rect rx="6" ry="6" x="492" y="92" width="40" height="34" class="combo"/>
<text x="512" y="109" class="combo tap">:</text>
</g>
<g class="combo combopos-10">
<path d="M416,70 l171,28" class="combo"/>
<path d="M416,70 l-171,-28" class="combo"/>
<rect rx="6" ry="6" x="396" y="53" width="40" height="34" class="combo"/>
<text x="416" y="70" class="combo tap">$</text>
</g>
</g>
</g>
<g transform="translate(40, 365)" class="layer-symbol">
<text x="0" y="32" class="label" id="symbol">symbol:</text>
<g transform="translate(0, 64)">
<g transform="translate(32, 51)" class="key keypos-0">
<rect rx="6" ry="6" x="-28" y="-28" width="56" height="56" class="key"/>
<text x="0" y="0" class="key tap">!</text>
</g>
<g transform="translate(96, 38)" class="key keypos-1">
<rect rx="6" ry="6" x="-28" y="-28" width="56" height="56" class="key"/>
<text x="0" y="0" class="key tap">@</text>
</g>
<g transform="translate(160, 32)" class="key keypos-2">
<rect rx="6" ry="6" x="-28" y="-28" width="56" height="56" class="key"/>
<text x="0" y="0" class="key tap">#</text>
</g>
<g transform="translate(224, 38)" class="key keypos-3">
<rect rx="6" ry="6" x="-28" y="-28" width="56" height="56" class="key"/>
<text x="0" y="0" class="key tap">$</text>
<text x="0" y="26" class="key hold">4·LH</text>
</g>
<g transform="translate(288, 45)" class="key keypos-4">
<rect rx="6" ry="6" x="-28" y="-28" width="56" height="56" class="key"/>
<text x="0" y="0" class="key tap">%</text>
</g>
<g transform="translate(544, 45)" class="key keypos-5">
<rect rx="6" ry="6" x="-28" y="-28" width="56" height="56" class="key"/>
<text x="0" y="0" class="key tap">\</text>
</g>
<g transform="translate(608, 38)" class="key keypos-6">
<rect rx="6" ry="6" x="-28" y="-28" width="56" height="56" class="key"/>
<text x="0" y="0" class="key tap">&quot;</text>
</g>
<g transform="translate(672, 32)" class="key keypos-7">
<rect rx="6" ry="6" x="-28" y="-28" width="56" height="56" class="key"/>
<text x="0" y="0" class="key tap">{</text>
</g>
<g transform="translate(736, 38)" class="key keypos-8">
<rect rx="6" ry="6" x="-28" y="-28" width="56" height="56" class="key"/>
<text x="0" y="0" class="key tap">}</text>
</g>
<g transform="translate(800, 51)" class="key keypos-9">
<rect rx="6" ry="6" x="-28" y="-28" width="56" height="56" class="key"/>
<text x="0" y="0" class="key tap">|</text>
</g>
<g transform="translate(32, 115)" class="key keypos-10">
<rect rx="6" ry="6" x="-28" y="-28" width="56" height="56" class="key"/>
<text x="0" y="0" class="key tap">BACKSPACE</text>
</g>
<g transform="translate(96, 102)" class="key trans keypos-11">
<rect rx="6" ry="6" x="-28" y="-28" width="56" height="56" class="key trans"/>
<text x="0" y="0" class="key trans tap">▽</text>
</g>
<g transform="translate(160, 96)" class="key trans keypos-12">
<rect rx="6" ry="6" x="-28" y="-28" width="56" height="56" class="key trans"/>
<text x="0" y="0" class="key trans tap">▽·MT</text>
</g>
<g transform="translate(224, 102)" class="key keypos-13">
<rect rx="6" ry="6" x="-28" y="-28" width="56" height="56" class="key"/>
<text x="0" y="0" class="key tap">^</text>
<text x="0" y="26" class="key hold">~</text>
</g>
<g transform="translate(288, 109)" class="key keypos-14">
<rect rx="6" ry="6" x="-28" y="-28" width="56" height="56" class="key"/>
<text x="0" y="0" class="key tap">&amp;</text>
</g>
<g transform="translate(544, 109)" class="key keypos-15">
<rect rx="6" ry="6" x="-28" y="-28" width="56" height="56" class="key"/>
<text x="0" y="0" class="key tap">`</text>
</g>
<g transform="translate(608, 102)" class="key keypos-16">
<rect rx="6" ry="6" x="-28" y="-28" width="56" height="56" class="key"/>
<text x="0" y="0" class="key tap">=</text>
</g>
<g transform="translate(672, 96)" class="key keypos-17">
<rect rx="6" ry="6" x="-28" y="-28" width="56" height="56" class="key"/>
<text x="0" y="0" class="key tap">(</text>
</g>
<g transform="translate(736, 102)" class="key keypos-18">
<rect rx="6" ry="6" x="-28" y="-28" width="56" height="56" class="key"/>
<text x="0" y="0" class="key tap">)</text>
</g>
<g transform="translate(800, 115)" class="key keypos-19">
<rect rx="6" ry="6" x="-28" y="-28" width="56" height="56" class="key"/>
<text x="0" y="0" class="key tap">;</text>
</g>
<g transform="translate(32, 179)" class="key trans keypos-20">
<rect rx="6" ry="6" x="-28" y="-28" width="56" height="56" class="key trans"/>
<text x="0" y="0" class="key trans tap">▽</text>
</g>
<g transform="translate(96, 166)" class="key trans keypos-21">
<rect rx="6" ry="6" x="-28" y="-28" width="56" height="56" class="key trans"/>
<text x="0" y="0" class="key trans tap">▽</text>
</g>
<g transform="translate(160, 160)" class="key trans keypos-22">
<rect rx="6" ry="6" x="-28" y="-28" width="56" height="56" class="key trans"/>
<text x="0" y="0" class="key trans tap">▽</text>
</g>
<g transform="translate(224, 166)" class="key trans keypos-23">
<rect rx="6" ry="6" x="-28" y="-28" width="56" height="56" class="key trans"/>
<text x="0" y="0" class="key trans tap">▽·MT</text>
</g>
<g transform="translate(288, 173)" class="key trans keypos-24">
<rect rx="6" ry="6" x="-28" y="-28" width="56" height="56" class="key trans"/>
<text x="0" y="0" class="key trans tap">▽·MT</text>
</g>
<g transform="translate(544, 173)" class="key keypos-25">
<rect rx="6" ry="6" x="-28" y="-28" width="56" height="56" class="key"/>
<text x="0" y="0" class="key tap">-</text>
</g>
<g transform="translate(608, 166)" class="key keypos-26">
<rect rx="6" ry="6" x="-28" y="-28" width="56" height="56" class="key"/>
<text x="0" y="0" class="key tap">_</text>
</g>
<g transform="translate(672, 160)" class="key keypos-27">
<rect rx="6" ry="6" x="-28" y="-28" width="56" height="56" class="key"/>
<text x="0" y="0" class="key tap">[</text>
<text x="0" y="26" class="key hold">&lt;</text>
</g>
<g transform="translate(736, 166)" class="key keypos-28">
<rect rx="6" ry="6" x="-28" y="-28" width="56" height="56" class="key"/>
<text x="0" y="0" class="key tap">]</text>
<text x="0" y="26" class="key hold">&gt;</text>
</g>
<g transform="translate(800, 179)" class="key keypos-29">
<rect rx="6" ry="6" x="-28" y="-28" width="56" height="56" class="key"/>
<text x="0" y="0" class="key tap">/</text>
<text x="0" y="26" class="key hold">?</text>
</g>
<g transform="translate(224, 269)" class="key keypos-30">
<rect rx="6" ry="6" x="-28" y="-28" width="56" height="56" class="key"/>
<text x="0" y="0" class="key tap">Gui</text>
</g>
<g transform="translate(288, 269)" class="key held keypos-31">
<rect rx="6" ry="6" x="-28" y="-28" width="56" height="56" class="key held"/>
<a href="#default">
<text x="0" y="0" class="key held tap layer-activator">default</text>
</a><text x="0" y="26" class="key held hold">toggle</text>
</g>
<g transform="translate(352, 253)" class="key keypos-32">
<rect rx="6" ry="6" x="-28" y="-44" width="56" height="88" class="key"/>
<text x="0" y="0" class="key tap">SPACE</text>
</g>
<g transform="translate(480, 253)" class="key keypos-33">
<rect rx="6" ry="6" x="-28" y="-44" width="56" height="88" class="key"/>
<text x="0" y="0" class="key tap">RET</text>
</g>
<g transform="translate(544, 269)" class="key trans keypos-34">
<rect rx="6" ry="6" x="-28" y="-28" width="56" height="56" class="key trans"/>
<text x="0" y="0" class="key trans tap">▽</text>
</g>
<g transform="translate(608, 269)" class="key keypos-35">
<rect rx="6" ry="6" x="-28" y="-28" width="56" height="56" class="key"/>
<text x="0" y="0" class="key tap">AltGr</text>
</g>
</g>
</g>
<g transform="translate(40, 730)" class="layer-number">
<text x="0" y="32" class="label" id="number">number:</text>
<g transform="translate(0, 64)">
<g transform="translate(32, 51)" class="key keypos-0">
<rect rx="6" ry="6" x="-28" y="-28" width="56" height="56" class="key"/>
<text x="0" y="0" class="key tap">1</text>
</g>
<g transform="translate(96, 38)" class="key keypos-1">
<rect rx="6" ry="6" x="-28" y="-28" width="56" height="56" class="key"/>
<text x="0" y="0" class="key tap">2</text>
</g>
<g transform="translate(160, 32)" class="key keypos-2">
<rect rx="6" ry="6" x="-28" y="-28" width="56" height="56" class="key"/>
<text x="0" y="0" class="key tap">3</text>
</g>
<g transform="translate(224, 38)" class="key keypos-3">
<rect rx="6" ry="6" x="-28" y="-28" width="56" height="56" class="key"/>
<text x="0" y="0" class="key tap">4</text>
</g>
<g transform="translate(288, 45)" class="key keypos-4">
<rect rx="6" ry="6" x="-28" y="-28" width="56" height="56" class="key"/>
<text x="0" y="0" class="key tap">5</text>
</g>
<g transform="translate(544, 45)" class="key keypos-5">
<rect rx="6" ry="6" x="-28" y="-28" width="56" height="56" class="key"/>
<text x="0" y="0" class="key tap">6</text>
</g>
<g transform="translate(608, 38)" class="key keypos-6">
<rect rx="6" ry="6" x="-28" y="-28" width="56" height="56" class="key"/>
<text x="0" y="0" class="key tap">7</text>
</g>
<g transform="translate(672, 32)" class="key keypos-7">
<rect rx="6" ry="6" x="-28" y="-28" width="56" height="56" class="key"/>
<text x="0" y="0" class="key tap">8</text>
</g>
<g transform="translate(736, 38)" class="key keypos-8">
<rect rx="6" ry="6" x="-28" y="-28" width="56" height="56" class="key"/>
<text x="0" y="0" class="key tap">9</text>
</g>
<g transform="translate(800, 51)" class="key keypos-9">
<rect rx="6" ry="6" x="-28" y="-28" width="56" height="56" class="key"/>
<text x="0" y="0" class="key tap">Sft+%</text>
</g>
<g transform="translate(32, 115)" class="key keypos-10">
<rect rx="6" ry="6" x="-28" y="-28" width="56" height="56" class="key"/>
<text x="0" y="0" class="key tap">BACKSPACE</text>
</g>
<g transform="translate(96, 102)" class="key trans keypos-11">
<rect rx="6" ry="6" x="-28" y="-28" width="56" height="56" class="key trans"/>
<text x="0" y="0" class="key trans tap">▽</text>
</g>
<g transform="translate(160, 96)" class="key trans keypos-12">
<rect rx="6" ry="6" x="-28" y="-28" width="56" height="56" class="key trans"/>
<text x="0" y="0" class="key trans tap">▽</text>
</g>
<g transform="translate(224, 102)" class="key trans keypos-13">
<rect rx="6" ry="6" x="-28" y="-28" width="56" height="56" class="key trans"/>
<text x="0" y="0" class="key trans tap">▽</text>
</g>
<g transform="translate(288, 109)" class="key trans keypos-14">
<rect rx="6" ry="6" x="-28" y="-28" width="56" height="56" class="key trans"/>
<text x="0" y="0" class="key trans tap">▽·MT</text>
</g>
<g transform="translate(544, 109)" class="key keypos-15">
<rect rx="6" ry="6" x="-28" y="-28" width="56" height="56" class="key"/>
<text x="0" y="0" class="key tap">4</text>
</g>
<g transform="translate(608, 102)" class="key keypos-16">
<rect rx="6" ry="6" x="-28" y="-28" width="56" height="56" class="key"/>
<text x="0" y="0" class="key tap">4</text>
<text x="0" y="26" class="key hold">=</text>
</g>
<g transform="translate(672, 96)" class="key keypos-17">
<rect rx="6" ry="6" x="-28" y="-28" width="56" height="56" class="key"/>
<text x="0" y="0" class="key tap">5</text>
</g>
<g transform="translate(736, 102)" class="key keypos-18">
<rect rx="6" ry="6" x="-28" y="-28" width="56" height="56" class="key"/>
<text x="0" y="0" class="key tap">6</text>
</g>
<g transform="translate(800, 115)" class="key keypos-19">
<rect rx="6" ry="6" x="-28" y="-28" width="56" height="56" class="key"/>
<text x="0" y="0" class="key tap">-</text>
</g>
<g transform="translate(32, 179)" class="key trans keypos-20">
<rect rx="6" ry="6" x="-28" y="-28" width="56" height="56" class="key trans"/>
<text x="0" y="0" class="key trans tap">▽</text>
</g>
<g transform="translate(96, 166)" class="key trans keypos-21">
<rect rx="6" ry="6" x="-28" y="-28" width="56" height="56" class="key trans"/>
<text x="0" y="0" class="key trans tap">▽</text>
</g>
<g transform="translate(160, 160)" class="key trans keypos-22">
<rect rx="6" ry="6" x="-28" y="-28" width="56" height="56" class="key trans"/>
<text x="0" y="0" class="key trans tap">▽</text>
</g>
<g transform="translate(224, 166)" class="key trans keypos-23">
<rect rx="6" ry="6" x="-28" y="-28" width="56" height="56" class="key trans"/>
<text x="0" y="0" class="key trans tap">▽</text>
</g>
<g transform="translate(288, 173)" class="key trans keypos-24">
<rect rx="6" ry="6" x="-28" y="-28" width="56" height="56" class="key trans"/>
<text x="0" y="0" class="key trans tap">▽</text>
</g>
<g transform="translate(544, 173)" class="key keypos-25">
<rect rx="6" ry="6" x="-28" y="-28" width="56" height="56" class="key"/>
<text x="0" y="0" class="key tap">1</text>
</g>
<g transform="translate(608, 166)" class="key keypos-26">
<rect rx="6" ry="6" x="-28" y="-28" width="56" height="56" class="key"/>
<text x="0" y="0" class="key tap">1</text>
</g>
<g transform="translate(672, 160)" class="key keypos-27">
<rect rx="6" ry="6" x="-28" y="-28" width="56" height="56" class="key"/>
<text x="0" y="0" class="key tap">2</text>
</g>
<g transform="translate(736, 166)" class="key keypos-28">
<rect rx="6" ry="6" x="-28" y="-28" width="56" height="56" class="key"/>
<text x="0" y="0" class="key tap">3</text>
</g>
<g transform="translate(800, 179)" class="key keypos-29">
<rect rx="6" ry="6" x="-28" y="-28" width="56" height="56" class="key"/>
<text x="0" y="0" class="key tap">+</text>
</g>
<g transform="translate(224, 269)" class="key keypos-30">
<rect rx="6" ry="6" x="-28" y="-28" width="56" height="56" class="key"/>
<text x="0" y="0" class="key tap">DEL</text>
</g>
<g transform="translate(288, 269)" class="key trans keypos-31">
<rect rx="6" ry="6" x="-28" y="-28" width="56" height="56" class="key trans"/>
<text x="0" y="0" class="key trans tap">▽</text>
</g>
<g transform="translate(352, 253)" class="key held keypos-32">
<rect rx="6" ry="6" x="-28" y="-44" width="56" height="88" class="key held"/>
<text x="0" y="0" class="key held tap">0</text>
</g>
<g transform="translate(480, 253)" class="key keypos-33">
<rect rx="6" ry="6" x="-28" y="-44" width="56" height="88" class="key"/>
<text x="0" y="0" class="key tap">.</text>
</g>
<g transform="translate(544, 269)" class="key keypos-34">
<rect rx="6" ry="6" x="-28" y="-28" width="56" height="56" class="key"/>
<text x="0" y="0" class="key tap">0</text>
</g>
<g transform="translate(608, 269)" class="key keypos-35">
<rect rx="6" ry="6" x="-28" y="-28" width="56" height="56" class="key"/>
<text x="0" y="0" class="key tap">,</text>
</g>
</g>
</g>
<g transform="translate(40, 1094)" class="layer-navigation">
<text x="0" y="32" class="label" id="navigation">navigation:</text>
<g transform="translate(0, 64)">
<g transform="translate(32, 51)" class="key keypos-0">
<rect rx="6" ry="6" x="-28" y="-28" width="56" height="56" class="key"/>
<text x="0" y="0" class="key tap">Ctl+Alt+1</text>
</g>
<g transform="translate(96, 38)" class="key keypos-1">
<rect rx="6" ry="6" x="-28" y="-28" width="56" height="56" class="key"/>
<text x="0" y="0" class="key tap">Ctl+Alt+2</text>
</g>
<g transform="translate(160, 32)" class="key keypos-2">
<rect rx="6" ry="6" x="-28" y="-28" width="56" height="56" class="key"/>
<text x="0" y="0" class="key tap">Ctl+Alt+3</text>
</g>
<g transform="translate(224, 38)" class="key keypos-3">
<rect rx="6" ry="6" x="-28" y="-28" width="56" height="56" class="key"/>
<text x="0" y="0" class="key tap">Ctl+Alt+4</text>
</g>
<g transform="translate(288, 45)" class="key keypos-4">
<rect rx="6" ry="6" x="-28" y="-28" width="56" height="56" class="key"/>
<text x="0" y="0" class="key tap">Ctl+Alt+5</text>
</g>
<g transform="translate(544, 45)" class="key keypos-5">
<rect rx="6" ry="6" x="-28" y="-28" width="56" height="56" class="key"/>
<text x="0" y="0" class="key tap">Meh+1</text>
</g>
<g transform="translate(608, 38)" class="key keypos-6">
<rect rx="6" ry="6" x="-28" y="-28" width="56" height="56" class="key"/>
<text x="0" y="0" class="key tap">Meh+2</text>
</g>
<g transform="translate(672, 32)" class="key keypos-7">
<rect rx="6" ry="6" x="-28" y="-28" width="56" height="56" class="key"/>
<text x="0" y="0" class="key tap">Meh+3</text>
</g>
<g transform="translate(736, 38)" class="key keypos-8">
<rect rx="6" ry="6" x="-28" y="-28" width="56" height="56" class="key"/>
<text x="0" y="0" class="key tap">Meh+4</text>
</g>
<g transform="translate(800, 51)" class="key keypos-9">
<rect rx="6" ry="6" x="-28" y="-28" width="56" height="56" class="key"/>
<text x="0" y="0" class="key tap">Meh+5</text>
</g>
<g transform="translate(32, 115)" class="key keypos-10">
<rect rx="6" ry="6" x="-28" y="-28" width="56" height="56" class="key"/>
<text x="0" y="0" class="key tap">Ctl</text>
</g>
<g transform="translate(96, 102)" class="key keypos-11">
<rect rx="6" ry="6" x="-28" y="-28" width="56" height="56" class="key"/>
</g>
<g transform="translate(160, 96)" class="key keypos-12">
<rect rx="6" ry="6" x="-28" y="-28" width="56" height="56" class="key"/>
<a href="#default">
<text x="0" y="0" class="key tap layer-activator">default</text>
</a><text x="0" y="26" class="key hold">toggle</text>
</g>
<g transform="translate(224, 102)" class="key keypos-13">
<rect rx="6" ry="6" x="-28" y="-28" width="56" height="56" class="key"/>
<a href="#default">
<text x="0" y="0" class="key tap layer-activator">default</text>
</a><text x="0" y="26" class="key hold">toggle</text>
</g>
<g transform="translate(288, 109)" class="key keypos-14">
<rect rx="6" ry="6" x="-28" y="-28" width="56" height="56" class="key"/>
</g>
<g transform="translate(544, 109)" class="key keypos-15">
<rect rx="6" ry="6" x="-28" y="-28" width="56" height="56" class="key"/>
</g>
<g transform="translate(608, 102)" class="key keypos-16">
<rect rx="6" ry="6" x="-28" y="-28" width="56" height="56" class="key"/>
<text x="0" y="0" class="key tap">Ctl+Alt+H</text>
</g>
<g transform="translate(672, 96)" class="key keypos-17">
<rect rx="6" ry="6" x="-28" y="-28" width="56" height="56" class="key"/>
<text x="0" y="0" class="key tap">Ctl+Alt+J</text>
</g>
<g transform="translate(736, 102)" class="key keypos-18">
<rect rx="6" ry="6" x="-28" y="-28" width="56" height="56" class="key"/>
<text x="0" y="0" class="key tap">Ctl+Alt+K</text>
</g>
<g transform="translate(800, 115)" class="key keypos-19">
<rect rx="6" ry="6" x="-28" y="-28" width="56" height="56" class="key"/>
<text x="0" y="0" class="key tap">Ctl+Alt+L</text>
</g>
<g transform="translate(32, 179)" class="key keypos-20">
<rect rx="6" ry="6" x="-28" y="-28" width="56" height="56" class="key"/>
</g>
<g transform="translate(96, 166)" class="key keypos-21">
<rect rx="6" ry="6" x="-28" y="-28" width="56" height="56" class="key"/>
</g>
<g transform="translate(160, 160)" class="key keypos-22">
<rect rx="6" ry="6" x="-28" y="-28" width="56" height="56" class="key"/>
</g>
<g transform="translate(224, 166)" class="key keypos-23">
<rect rx="6" ry="6" x="-28" y="-28" width="56" height="56" class="key"/>
</g>
<g transform="translate(288, 173)" class="key keypos-24">
<rect rx="6" ry="6" x="-28" y="-28" width="56" height="56" class="key"/>
</g>
<g transform="translate(544, 173)" class="key keypos-25">
<rect rx="6" ry="6" x="-28" y="-28" width="56" height="56" class="key"/>
<text x="0" y="0" class="key tap">Meh+P</text>
</g>
<g transform="translate(608, 166)" class="key keypos-26">
<rect rx="6" ry="6" x="-28" y="-28" width="56" height="56" class="key"/>
<text x="0" y="0" class="key tap">Ctl+Alt+F</text>
</g>
<g transform="translate(672, 160)" class="key keypos-27">
<rect rx="6" ry="6" x="-28" y="-28" width="56" height="56" class="key"/>
<text x="0" y="0" class="key tap">Alt+Ctl+M</text>
</g>
<g transform="translate(736, 166)" class="key keypos-28">
<rect rx="6" ry="6" x="-28" y="-28" width="56" height="56" class="key"/>
<text x="0" y="0" class="key tap">Sft+Ctl+L</text>
</g>
<g transform="translate(800, 179)" class="key keypos-29">
<rect rx="6" ry="6" x="-28" y="-28" width="56" height="56" class="key"/>
<text x="0" y="0" class="key tap">Sft+Ctl+K</text>
</g>
<g transform="translate(224, 269)" class="key keypos-30">
<rect rx="6" ry="6" x="-28" y="-28" width="56" height="56" class="key"/>
<text x="0" y="0" class="key tap">GuiType</text>
</g>
<g transform="translate(288, 269)" class="key keypos-31">
<rect rx="6" ry="6" x="-28" y="-28" width="56" height="56" class="key"/>
<a href="#default">
<text x="0" y="0" class="key tap layer-activator">default</text>
</a><text x="0" y="26" class="key hold">toggle</text>
</g>
<g transform="translate(352, 253)" class="key keypos-32">
<rect rx="6" ry="6" x="-28" y="-44" width="56" height="88" class="key"/>
<text x="0" y="0" class="key tap">AltTab</text>
</g>
<g transform="translate(480, 253)" class="key keypos-33">
<rect rx="6" ry="6" x="-28" y="-44" width="56" height="88" class="key"/>
<a href="#default">
<text x="0" y="0" class="key tap layer-activator">default</text>
</a><text x="0" y="42" class="key hold">toggle</text>
</g>
<g transform="translate(544, 269)" class="key keypos-34">
<rect rx="6" ry="6" x="-28" y="-28" width="56" height="56" class="key"/>
<a href="#default">
<text x="0" y="0" class="key tap layer-activator">default</text>
</a><text x="0" y="26" class="key hold">toggle</text>
</g>
<g transform="translate(608, 269)" class="key keypos-35">
<rect rx="6" ry="6" x="-28" y="-28" width="56" height="56" class="key"/>
<a href="#default">
<text x="0" y="0" class="key tap layer-activator">default</text>
</a><text x="0" y="26" class="key hold">toggle</text>
</g>
<g class="combo combopos-0">
<rect rx="6" ry="6" x="620" y="82" width="40" height="34" class="combo"/>
<text x="640" y="99" class="combo tap">Meh+H</text>
</g>
<g class="combo combopos-1">
<rect rx="6" ry="6" x="748" y="92" width="40" height="34" class="combo"/>
<text x="768" y="109" class="combo tap">Meh+L</text>
</g>
<g class="combo combopos-2">
<rect rx="6" ry="6" x="684" y="82" width="40" height="34" class="combo"/>
<text x="704" y="99" class="combo tap">Ctl+Alt+D</text>
</g>
<g class="combo combopos-3">
<rect rx="6" ry="6" x="684" y="18" width="40" height="34" class="combo"/>
<text x="704" y="35" class="combo tap">Meh+J</text>
</g>
<g class="combo combopos-4">
<rect rx="6" ry="6" x="684" y="146" width="40" height="34" class="combo"/>
<text x="704" y="163" class="combo tap">Meh+K</text>
</g>
<g class="combo combopos-5">
<path d="M672,164 l43,1" class="combo"/>
<path d="M672,164 l-43,1" class="combo"/>
<rect rx="6" ry="6" x="652" y="147" width="40" height="34" class="combo"/>
<text x="672" y="164" class="combo tap">Alt+F4</text>
</g>
</g>
</g>
<g transform="translate(40, 1459)" class="layer-window">
<text x="0" y="32" class="label" id="window">window:</text>
<g transform="translate(0, 64)">
<g transform="translate(32, 51)" class="key keypos-0">
<rect rx="6" ry="6" x="-28" y="-28" width="56" height="56" class="key"/>
<text x="0" y="0" class="key tap">Ctl+Q</text>
</g>
<g transform="translate(96, 38)" class="key trans keypos-1">
<rect rx="6" ry="6" x="-28" y="-28" width="56" height="56" class="key trans"/>
<text x="0" y="0" class="key trans tap">▽</text>
</g>
<g transform="translate(160, 32)" class="key trans keypos-2">
<rect rx="6" ry="6" x="-28" y="-28" width="56" height="56" class="key trans"/>
<text x="0" y="0" class="key trans tap">▽</text>
</g>
<g transform="translate(224, 38)" class="key trans keypos-3">
<rect rx="6" ry="6" x="-28" y="-28" width="56" height="56" class="key trans"/>
<text x="0" y="0" class="key trans tap">▽</text>
</g>
<g transform="translate(288, 45)" class="key keypos-4">
<rect rx="6" ry="6" x="-28" y="-28" width="56" height="56" class="key"/>
<text x="0" y="0" class="key tap">Ctl+T</text>
</g>
<g transform="translate(544, 45)" class="key trans keypos-5">
<rect rx="6" ry="6" x="-28" y="-28" width="56" height="56" class="key trans"/>
<text x="0" y="0" class="key trans tap">▽</text>
</g>
<g transform="translate(608, 38)" class="key trans keypos-6">
<rect rx="6" ry="6" x="-28" y="-28" width="56" height="56" class="key trans"/>
<text x="0" y="0" class="key trans tap">▽</text>
</g>
<g transform="translate(672, 32)" class="key keypos-7">
<rect rx="6" ry="6" x="-28" y="-28" width="56" height="56" class="key"/>
<text x="0" y="0" class="key tap">HOME</text>
</g>
<g transform="translate(736, 38)" class="key keypos-8">
<rect rx="6" ry="6" x="-28" y="-28" width="56" height="56" class="key"/>
<text x="0" y="0" class="key tap">END</text>
</g>
<g transform="translate(800, 51)" class="key trans keypos-9">
<rect rx="6" ry="6" x="-28" y="-28" width="56" height="56" class="key trans"/>
<text x="0" y="0" class="key trans tap">▽</text>
</g>
<g transform="translate(32, 115)" class="key trans keypos-10">
<rect rx="6" ry="6" x="-28" y="-28" width="56" height="56" class="key trans"/>
<text x="0" y="0" class="key trans tap">▽</text>
</g>
<g transform="translate(96, 102)" class="key keypos-11">
<rect rx="6" ry="6" x="-28" y="-28" width="56" height="56" class="key"/>
<text x="0" y="0" class="key tap">
<tspan x="0" dy="-0.625em">Ctl+LEFT</tspan><tspan x="0" dy="1.25em">ARROW</tspan>
</text>
</g>
<g transform="translate(160, 96)" class="key keypos-12">
<rect rx="6" ry="6" x="-28" y="-28" width="56" height="56" class="key"/>
<text x="0" y="0" class="key tap">
<tspan x="0" dy="-0.625em">Ctl+LEFT</tspan><tspan x="0" dy="1.25em">ARROW</tspan>
</text>
</g>
<g transform="translate(224, 102)" class="key keypos-13">
<rect rx="6" ry="6" x="-28" y="-28" width="56" height="56" class="key"/>
<text x="0" y="0" class="key tap">Ctl+RIGHT</text>
</g>
<g transform="translate(288, 109)" class="key keypos-14">
<rect rx="6" ry="6" x="-28" y="-28" width="56" height="56" class="key"/>
<text x="0" y="0" class="key tap">Ctl+RIGHT</text>
</g>
<g transform="translate(544, 109)" class="key keypos-15">
<rect rx="6" ry="6" x="-28" y="-28" width="56" height="56" class="key"/>
<text x="0" y="0" class="key tap">LEFT</text>
</g>
<g transform="translate(608, 102)" class="key keypos-16">
<rect rx="6" ry="6" x="-28" y="-28" width="56" height="56" class="key"/>
<text x="0" y="0" class="key tap">DOWN</text>
</g>
<g transform="translate(672, 96)" class="key keypos-17">
<rect rx="6" ry="6" x="-28" y="-28" width="56" height="56" class="key"/>
<text x="0" y="0" class="key tap">UP</text>
</g>
<g transform="translate(736, 102)" class="key keypos-18">
<rect rx="6" ry="6" x="-28" y="-28" width="56" height="56" class="key"/>
<text x="0" y="0" class="key tap">RIGHT</text>
</g>
<g transform="translate(800, 115)" class="key trans keypos-19">
<rect rx="6" ry="6" x="-28" y="-28" width="56" height="56" class="key trans"/>
<text x="0" y="0" class="key trans tap">▽</text>
</g>
<g transform="translate(32, 179)" class="key keypos-20">
<rect rx="6" ry="6" x="-28" y="-28" width="56" height="56" class="key"/>
<text x="0" y="0" class="key tap">
<tspan x="0" dy="-0.625em">VOLUME</tspan><tspan x="0" dy="1.25em">DOWN</tspan>
</text>
</g>
<g transform="translate(96, 166)" class="key keypos-21">
<rect rx="6" ry="6" x="-28" y="-28" width="56" height="56" class="key"/>
<text x="0" y="0" class="key tap">PREVIOUS</text>
</g>
<g transform="translate(160, 160)" class="key keypos-22">
<rect rx="6" ry="6" x="-28" y="-28" width="56" height="56" class="key"/>
<text x="0" y="0" class="key tap">
<tspan x="0" dy="-0.625em">PLAY</tspan><tspan x="0" dy="1.25em">PAUSE</tspan>
</text>
</g>
<g transform="translate(224, 166)" class="key keypos-23">
<rect rx="6" ry="6" x="-28" y="-28" width="56" height="56" class="key"/>
<text x="0" y="0" class="key tap">NEXT</text>
</g>
<g transform="translate(288, 173)" class="key keypos-24">
<rect rx="6" ry="6" x="-28" y="-28" width="56" height="56" class="key"/>
<text x="0" y="0" class="key tap">
<tspan x="0" dy="-0.625em">VOLUME</tspan><tspan x="0" dy="1.25em">UP</tspan>
</text>
</g>
<g transform="translate(544, 173)" class="key trans keypos-25">
<rect rx="6" ry="6" x="-28" y="-28" width="56" height="56" class="key trans"/>
<text x="0" y="0" class="key trans tap">▽</text>
</g>
<g transform="translate(608, 166)" class="key keypos-26">
<rect rx="6" ry="6" x="-28" y="-28" width="56" height="56" class="key"/>
<text x="0" y="0" class="key tap">SelLn</text>
</g>
<g transform="translate(672, 160)" class="key keypos-27">
<rect rx="6" ry="6" x="-28" y="-28" width="56" height="56" class="key"/>
<text x="0" y="0" class="key tap">SelLn</text>
</g>
<g transform="translate(736, 166)" class="key keypos-28">
<rect rx="6" ry="6" x="-28" y="-28" width="56" height="56" class="key"/>
<text x="0" y="0" class="key tap">SelWrd</text>
</g>
<g transform="translate(800, 179)" class="key trans keypos-29">
<rect rx="6" ry="6" x="-28" y="-28" width="56" height="56" class="key trans"/>
<text x="0" y="0" class="key trans tap">▽</text>
</g>
<g transform="translate(224, 269)" class="key trans keypos-30">
<rect rx="6" ry="6" x="-28" y="-28" width="56" height="56" class="key trans"/>
<text x="0" y="0" class="key trans tap">▽</text>
</g>
<g transform="translate(288, 269)" class="key trans keypos-31">
<rect rx="6" ry="6" x="-28" y="-28" width="56" height="56" class="key trans"/>
<text x="0" y="0" class="key trans tap">▽</text>
</g>
<g transform="translate(352, 253)" class="key keypos-32">
<rect rx="6" ry="6" x="-28" y="-44" width="56" height="88" class="key"/>
<text x="0" y="0" class="key tap">AltTab</text>
</g>
<g transform="translate(480, 253)" class="key held keypos-33">
<rect rx="6" ry="6" x="-28" y="-44" width="56" height="88" class="key held"/>
</g>
<g transform="translate(544, 269)" class="key trans keypos-34">
<rect rx="6" ry="6" x="-28" y="-28" width="56" height="56" class="key trans"/>
<text x="0" y="0" class="key trans tap">▽</text>
</g>
<g transform="translate(608, 269)" class="key trans keypos-35">
<rect rx="6" ry="6" x="-28" y="-28" width="56" height="56" class="key trans"/>
<text x="0" y="0" class="key trans tap">▽</text>
</g>
</g>
</g>
<g transform="translate(40, 1824)" class="layer-bootloader">
<text x="0" y="32" class="label" id="bootloader">bootloader:</text>
<g transform="translate(0, 64)">
<g transform="translate(32, 51)" class="key keypos-0">
<rect rx="6" ry="6" x="-28" y="-28" width="56" height="56" class="key"/>
<text x="0" y="0" class="key tap">1</text>
</g>
<g transform="translate(96, 38)" class="key keypos-1">
<rect rx="6" ry="6" x="-28" y="-28" width="56" height="56" class="key"/>
<text x="0" y="0" class="key tap">2</text>
</g>
<g transform="translate(160, 32)" class="key keypos-2">
<rect rx="6" ry="6" x="-28" y="-28" width="56" height="56" class="key"/>
<text x="0" y="0" class="key tap">3</text>
</g>
<g transform="translate(224, 38)" class="key keypos-3">
<rect rx="6" ry="6" x="-28" y="-28" width="56" height="56" class="key"/>
<text x="0" y="0" class="key tap">4</text>
</g>
<g transform="translate(288, 45)" class="key keypos-4">
<rect rx="6" ry="6" x="-28" y="-28" width="56" height="56" class="key"/>
<text x="0" y="0" class="key tap">5</text>
</g>
<g transform="translate(544, 45)" class="key keypos-5">
<rect rx="6" ry="6" x="-28" y="-28" width="56" height="56" class="key"/>
<text x="0" y="0" class="key tap">6</text>
</g>
<g transform="translate(608, 38)" class="key keypos-6">
<rect rx="6" ry="6" x="-28" y="-28" width="56" height="56" class="key"/>
<text x="0" y="0" class="key tap">7</text>
</g>
<g transform="translate(672, 32)" class="key keypos-7">
<rect rx="6" ry="6" x="-28" y="-28" width="56" height="56" class="key"/>
<text x="0" y="0" class="key tap">8</text>
</g>
<g transform="translate(736, 38)" class="key keypos-8">
<rect rx="6" ry="6" x="-28" y="-28" width="56" height="56" class="key"/>
<text x="0" y="0" class="key tap">9</text>
</g>
<g transform="translate(800, 51)" class="key keypos-9">
<rect rx="6" ry="6" x="-28" y="-28" width="56" height="56" class="key"/>
<text x="0" y="0" class="key tap">0</text>
</g>
<g transform="translate(32, 115)" class="key keypos-10">
<rect rx="6" ry="6" x="-28" y="-28" width="56" height="56" class="key"/>
<text x="0" y="0" class="key tap">BT</text>
<text x="0" y="26" class="key hold">0</text>
</g>
<g transform="translate(96, 102)" class="key keypos-11">
<rect rx="6" ry="6" x="-28" y="-28" width="56" height="56" class="key"/>
<text x="0" y="0" class="key tap">BT</text>
<text x="0" y="26" class="key hold">1</text>
</g>
<g transform="translate(160, 96)" class="key keypos-12">
<rect rx="6" ry="6" x="-28" y="-28" width="56" height="56" class="key"/>
<text x="0" y="0" class="key tap">BT</text>
<text x="0" y="26" class="key hold">2</text>
</g>
<g transform="translate(224, 102)" class="key keypos-13">
<rect rx="6" ry="6" x="-28" y="-28" width="56" height="56" class="key"/>
<text x="0" y="0" class="key tap">BT</text>
<text x="0" y="26" class="key hold">3</text>
</g>
<g transform="translate(288, 109)" class="key keypos-14">
<rect rx="6" ry="6" x="-28" y="-28" width="56" height="56" class="key"/>
<text x="0" y="0" class="key tap">BT</text>
<text x="0" y="26" class="key hold">4</text>
</g>
<g transform="translate(544, 109)" class="key keypos-15">
<rect rx="6" ry="6" x="-28" y="-28" width="56" height="56" class="key"/>
<text x="0" y="0" class="key tap">LEFT</text>
</g>
<g transform="translate(608, 102)" class="key keypos-16">
<rect rx="6" ry="6" x="-28" y="-28" width="56" height="56" class="key"/>
<text x="0" y="0" class="key tap">DOWN</text>
</g>
<g transform="translate(672, 96)" class="key keypos-17">
<rect rx="6" ry="6" x="-28" y="-28" width="56" height="56" class="key"/>
<text x="0" y="0" class="key tap">UP</text>
</g>
<g transform="translate(736, 102)" class="key keypos-18">
<rect rx="6" ry="6" x="-28" y="-28" width="56" height="56" class="key"/>
<text x="0" y="0" class="key tap">RIGHT</text>
</g>
<g transform="translate(800, 115)" class="key trans keypos-19">
<rect rx="6" ry="6" x="-28" y="-28" width="56" height="56" class="key trans"/>
<text x="0" y="0" class="key trans tap">▽</text>
</g>
<g transform="translate(32, 179)" class="key keypos-20">
<rect rx="6" ry="6" x="-28" y="-28" width="56" height="56" class="key"/>
<text x="0" y="0" class="key tap">Boot</text>
</g>
<g transform="translate(96, 166)" class="key trans keypos-21">
<rect rx="6" ry="6" x="-28" y="-28" width="56" height="56" class="key trans"/>
<text x="0" y="0" class="key trans tap">▽</text>
</g>
<g transform="translate(160, 160)" class="key trans keypos-22">
<rect rx="6" ry="6" x="-28" y="-28" width="56" height="56" class="key trans"/>
<text x="0" y="0" class="key trans tap">▽</text>
</g>
<g transform="translate(224, 166)" class="key trans keypos-23">
<rect rx="6" ry="6" x="-28" y="-28" width="56" height="56" class="key trans"/>
<text x="0" y="0" class="key trans tap">▽</text>
</g>
<g transform="translate(288, 173)" class="key trans keypos-24">
<rect rx="6" ry="6" x="-28" y="-28" width="56" height="56" class="key trans"/>
<text x="0" y="0" class="key trans tap">▽</text>
</g>
<g transform="translate(544, 173)" class="key trans keypos-25">
<rect rx="6" ry="6" x="-28" y="-28" width="56" height="56" class="key trans"/>
<text x="0" y="0" class="key trans tap">▽</text>
</g>
<g transform="translate(608, 166)" class="key trans keypos-26">
<rect rx="6" ry="6" x="-28" y="-28" width="56" height="56" class="key trans"/>
<text x="0" y="0" class="key trans tap">▽</text>
</g>
<g transform="translate(672, 160)" class="key trans keypos-27">
<rect rx="6" ry="6" x="-28" y="-28" width="56" height="56" class="key trans"/>
<text x="0" y="0" class="key trans tap">▽</text>
</g>
<g transform="translate(736, 166)" class="key trans keypos-28">
<rect rx="6" ry="6" x="-28" y="-28" width="56" height="56" class="key trans"/>
<text x="0" y="0" class="key trans tap">▽</text>
</g>
<g transform="translate(800, 179)" class="key keypos-29">
<rect rx="6" ry="6" x="-28" y="-28" width="56" height="56" class="key"/>
<text x="0" y="0" class="key tap">Boot</text>
</g>
<g transform="translate(224, 269)" class="key held keypos-30">
<rect rx="6" ry="6" x="-28" y="-28" width="56" height="56" class="key held"/>
<text x="0" y="0" class="key held tap">Gui</text>
</g>
<g transform="translate(288, 269)" class="key held keypos-31">
<rect rx="6" ry="6" x="-28" y="-28" width="56" height="56" class="key held"/>
</g>
<g transform="translate(352, 253)" class="key held keypos-32">
<rect rx="6" ry="6" x="-28" y="-44" width="56" height="88" class="key held"/>
<text x="0" y="0" class="key held tap">SPACE</text>
</g>
<g transform="translate(480, 253)" class="key keypos-33">
<rect rx="6" ry="6" x="-28" y="-44" width="56" height="88" class="key"/>
<text x="0" y="0" class="key tap">RET</text>
</g>
<g transform="translate(544, 269)" class="key trans keypos-34">
<rect rx="6" ry="6" x="-28" y="-28" width="56" height="56" class="key trans"/>
<text x="0" y="0" class="key trans tap">▽</text>
</g>
<g transform="translate(608, 269)" class="key keypos-35">
<rect rx="6" ry="6" x="-28" y="-28" width="56" height="56" class="key"/>
<text x="0" y="0" class="key tap">AltGr</text>
</g>
</g>
</g>
</svg>
